<?xml version="1.0" standalone="no"?>
<!DOCTYPE svg PUBLIC "-//W3C//DTD SVG 20010904//EN"
 "http://www.w3.org/TR/2001/REC-SVG-20010904/DTD/svg10.dtd">
<svg version="1.0" xmlns="http://www.w3.org/2000/svg"
 width="751.000000pt" height="751.000000pt" viewBox="0 0 751.000000 751.000000"
 preserveAspectRatio="xMidYMid meet">
<metadata>
Created by potrace 1.11, written by Peter Selinger 2001-2013
</metadata>
<g transform="translate(0.000000,751.000000) scale(0.100000,-0.100000)"
fill="#000000" stroke="none">
<path d="M2432 6725 l-32 -27 -2 -306 -3 -307 -123 -5 c-120 -5 -124 -6 -148
-33 -33 -38 -32 -86 2 -118 l26 -24 1817 -5 1818 -5 48 -30 c36 -22 57 -45 77
-84 l28 -53 0 -1989 c0 -2171 4 -2027 -55 -2089 -13 -14 -29 -38 -35 -54 -21
-57 28 -116 96 -116 37 0 99 67 138 149 l31 66 3 322 3 323 319 0 318 0 27 32
c32 38 29 81 -11 116 -25 22 -28 22 -340 22 l-314 0 0 235 0 235 300 0 c334 0
357 4 379 59 11 25 11 37 1 61 -24 58 -38 60 -375 60 l-305 0 0 235 0 235 315
0 316 0 24 24 c35 36 42 72 18 104 -37 50 -47 52 -370 52 l-303 0 0 235 0 235
316 0 316 0 29 29 c38 38 38 74 0 112 l-29 29 -316 0 -316 0 2 238 3 237 317
3 316 2 26 31 c14 17 26 37 26 45 0 24 -29 73 -49 84 -12 6 -136 10 -330 10
l-311 0 0 320 c0 298 -1 325 -21 382 -38 114 -106 188 -219 242 l-65 31 -327
3 -328 3 0 302 c0 331 0 332 -60 357 -24 10 -36 10 -61 -1 -55 -22 -59 -46
-59 -369 l0 -290 -235 0 -235 0 0 306 0 306 -29 29 c-36 36 -70 37 -110 3
l-31 -26 0 -309 0 -309 -237 2 -238 3 -3 307 -2 306 -32 27 c-38 32 -81 29
-115 -11 -23 -25 -23 -28 -23 -330 l0 -304 -235 0 -235 0 0 295 c0 326 -3 341
-60 365 -24 10 -36 10 -60 0 -57 -24 -60 -39 -60 -365 l0 -295 -235 0 -235 0
0 304 c0 302 0 305 -22 330 -35 40 -78 43 -116 11z"/>
<path d="M1717 6060 c-143 -45 -249 -166 -276 -315 -6 -34 -11 -183 -11 -352
l0 -293 -311 0 -311 0 -29 -29 c-37 -38 -39 -82 -4 -116 l24 -25 316 0 315 0
0 -240 0 -240 -315 0 -316 0 -24 -25 c-33 -32 -33 -83 0 -119 l24 -26 316 0
315 0 0 -234 0 -235 -316 -3 -316 -3 -24 -28 c-33 -39 -31 -81 5 -118 l29 -29
311 0 311 0 0 -235 0 -235 -311 0 -311 0 -29 -29 c-36 -37 -38 -79 -5 -118
l24 -28 316 -3 316 -3 0 -234 0 -235 -312 0 c-329 -1 -332 -1 -356 -47 -19
-35 -14 -72 13 -98 l24 -25 316 0 315 0 0 -154 c0 -170 9 -210 51 -231 41 -22
73 -18 103 11 l26 26 2 1872 3 1871 22 40 c41 77 114 125 188 125 48 0 95 45
95 90 0 22 -9 41 -29 61 -36 35 -85 38 -174 9z"/>
<path d="M1984 5674 c-60 -22 -119 -77 -151 -142 l-28 -57 0 -1750 c0 -1693 1
-1752 19 -1799 25 -65 79 -124 141 -152 l50 -24 1766 0 1765 0 52 26 c56 28
90 63 125 128 l22 41 3 1755 c3 1967 8 1811 -71 1898 -23 24 -59 53 -82 65
l-40 22 -1765 2 c-1528 1 -1771 0 -1806 -13z m354 -516 l3 -108 49 0 50 0 0
110 0 110 45 0 45 0 0 -135 0 -135 40 0 40 0 0 130 0 130 135 0 135 0 0 -45 0
-45 -80 0 -80 0 0 -55 0 -55 70 0 70 0 0 -45 0 -45 -60 0 -60 0 0 -55 c0 -45
-3 -55 -17 -56 -17 -1 -17 -2 0 -6 9 -2 17 -11 17 -19 0 -11 16 -14 68 -14
l68 0 -4 -40 -4 -40 -58 0 c-31 0 -85 -3 -119 -6 l-61 -7 0 97 c0 57 -4 96
-10 96 -5 0 -10 16 -10 35 0 34 -1 35 -40 35 -29 0 -40 -4 -40 -15 0 -8 -8
-16 -17 -16 -17 -1 -17 -2 0 -6 15 -4 17 -18 17 -114 l0 -109 -45 0 -45 0 0
115 0 115 -50 0 -50 0 0 -115 0 -115 -50 0 -50 0 0 98 c0 55 -3 154 -7 220
l-6 122 -39 0 -38 0 0 -180 c0 -173 1 -180 20 -180 11 0 20 -4 20 -10 0 -5 -9
-10 -20 -10 -11 0 -20 -7 -20 -15 0 -9 -7 -18 -16 -22 -13 -5 -13 -7 -2 -14 8
-5 -7 -9 -39 -9 l-53 0 0 219 0 220 -52 3 c-52 3 -53 4 -56 36 -6 64 -12 63
205 60 l198 -3 3 -107z m709 100 c4 -7 29 -64 54 -128 26 -63 51 -116 57 -118
8 -2 12 38 14 125 l3 128 48 3 47 3 0 -124 c0 -68 3 -165 6 -215 6 -81 5 -92
-10 -92 -9 0 -16 -4 -16 -10 0 -5 7 -10 15 -10 10 0 15 -11 15 -35 l0 -35 -70
0 -70 0 0 45 c0 32 -4 45 -14 45 -20 0 -79 143 -87 210 -4 39 -6 16 -8 -82 0
-85 -5 -138 -11 -138 -5 0 -10 -22 -10 -50 l0 -50 -46 0 -45 0 6 258 c4 141 8
263 10 270 6 16 101 16 112 0z m570 -14 c33 -21 54 -57 60 -104 5 -37 4 -40
-18 -40 -13 0 -34 -3 -46 -6 -18 -5 -23 -2 -23 13 0 38 -28 63 -71 63 -36 0
-41 -3 -55 -35 -16 -39 -20 -235 -5 -235 6 0 11 -17 13 -37 l3 -38 50 0 50 0
3 63 3 62 -36 0 c-33 0 -35 2 -35 35 l0 35 100 0 c60 0 100 -4 100 -10 0 -5
-4 -10 -10 -10 -5 0 -10 -6 -10 -14 0 -9 17 -15 53 -19 28 -2 53 -4 53 -3 1 0
21 69 46 151 l44 150 46 3 46 3 27 -88 c14 -48 34 -113 43 -143 8 -30 19 -59
24 -65 4 -5 8 57 8 138 l0 147 56 0 56 0 -4 -95 c-2 -71 0 -91 8 -82 18 18 84
148 84 164 0 9 16 13 55 13 49 0 55 -2 55 -20 0 -26 -23 -71 -67 -134 l-35
-48 30 -67 c26 -59 33 -67 63 -72 l34 -6 -32 -2 c-32 -1 -45 -22 -23 -36 6 -3
10 -17 10 -31 0 -13 5 -24 10 -24 6 0 10 -20 10 -45 l0 -45 -55 0 c-54 0 -55
0 -55 30 0 17 -4 30 -10 30 -5 0 -10 13 -10 28 0 41 -28 92 -50 92 -24 0 -35
-50 -27 -126 l6 -54 -105 0 -104 0 0 60 0 60 -60 0 c-53 0 -60 -2 -60 -19 0
-13 -8 -21 -22 -23 -19 -2 -24 -10 -26 -40 -3 -37 -4 -38 -45 -38 l-43 0 4 40
c3 26 9 40 18 40 11 0 14 18 14 75 l0 75 -35 0 c-28 0 -35 -4 -35 -20 0 -16
-7 -20 -30 -20 -16 0 -30 -4 -30 -10 0 -5 7 -10 15 -10 12 0 15 -15 15 -75 l0
-75 -145 0 -145 0 0 40 c0 31 -4 40 -17 40 -17 1 -17 1 0 14 24 18 21 26 -8
26 -22 0 -25 4 -25 35 0 19 4 35 8 35 5 0 12 50 15 110 7 119 20 159 63 187
52 33 163 37 211 7z m905 -116 l3 -143 30 -6 c30 -7 30 -7 3 -8 -36 -1 -41
-13 -33 -69 8 -62 14 -70 53 -78 l32 -6 0 51 c0 39 4 51 15 51 13 0 15 26 15
175 l0 175 50 0 50 0 0 -170 c0 -144 -2 -170 -15 -170 -8 0 -15 -4 -15 -10 0
-5 7 -10 15 -10 12 0 15 -13 15 -60 0 -57 -1 -60 -25 -60 -21 0 -25 -5 -25
-30 l0 -30 -120 0 -120 0 0 34 c0 19 -4 36 -9 38 -5 2 -12 108 -16 236 l-8
232 51 0 51 0 3 -142z m358 32 c0 -67 -4 -110 -10 -110 -6 0 -10 -45 -10 -115
l0 -115 80 0 c79 0 80 0 80 -25 0 -17 6 -25 18 -26 16 -1 16 -2 0 -6 -10 -2
-18 -12 -18 -20 0 -14 -11 -15 -82 -10 -46 4 -102 7 -125 7 l-43 0 0 64 c0 42
4 66 13 70 10 5 10 7 0 12 -10 4 -13 53 -13 195 l0 189 55 0 55 0 0 -110z
m439 78 c5 -18 24 -80 41 -138 17 -58 35 -113 40 -122 6 -10 10 -54 10 -98 0
-64 -3 -80 -15 -80 -8 0 -15 -4 -15 -10 0 -5 7 -10 15 -10 8 0 15 -9 15 -19 0
-11 6 -22 13 -24 6 -3 -16 -6 -50 -6 l-63 -1 0 60 0 60 -60 0 c-53 0 -60 -2
-60 -19 0 -13 -8 -21 -22 -23 -19 -2 -24 -10 -26 -40 -3 -37 -4 -38 -45 -38
l-43 0 4 40 c3 26 9 40 18 40 11 0 14 17 14 74 l0 75 -32 4 c-18 3 -10 3 18 2
l50 -3 39 131 c56 192 47 177 99 177 41 0 45 -2 55 -32z m-2746 -285 c-7 -2
-21 -2 -30 0 -10 3 -4 5 12 5 17 0 24 -2 18 -5z m700 -220 c-23 -2 -64 -2 -90
0 -26 2 -7 3 42 3 50 0 71 -1 48 -3z m260 0 c-18 -2 -48 -2 -65 0 -18 2 -4 4
32 4 36 0 50 -2 33 -4z m1450 -417 c-66 -32 -99 -55 -124 -86 -114 -142 -119
-145 -341 -226 -191 -69 -220 -85 -293 -154 -87 -84 -130 -104 -205 -95 -58 7
-61 6 -97 -25 -54 -48 -118 -73 -189 -74 -54 -1 -65 -5 -98 -34 -35 -30 -43
-33 -96 -30 -51 2 -61 0 -79 -22 -12 -14 -30 -43 -40 -66 -23 -49 -70 -75 -98
-53 -14 12 -16 12 -11 -1 2 -8 15 -20 27 -26 23 -12 23 -12 2 -19 -28 -9 -27
-23 4 -37 18 -8 31 -8 53 1 16 7 38 13 50 14 12 1 22 5 22 9 0 11 -8 10 -61
-6 -28 -9 -51 -11 -60 -5 -10 6 -7 9 13 9 14 0 41 12 58 27 28 23 32 31 27 64
-4 35 -2 39 27 53 30 14 51 20 106 31 14 2 42 9 63 14 48 12 47 0 -3 -40 -30
-25 -40 -39 -40 -62 0 -22 -4 -28 -16 -23 -9 3 -20 6 -26 6 -7 0 -9 17 -5 46
3 29 1 41 -4 33 -5 -8 -9 -26 -9 -41 0 -16 -6 -28 -12 -28 -8 0 -13 -13 -13
-30 0 -16 3 -30 8 -30 11 0 9 -34 -3 -46 -8 -8 -6 -15 6 -25 12 -9 15 -10 10
-1 -4 6 -2 12 3 12 6 0 11 -9 11 -20 0 -11 7 -23 15 -26 8 -4 15 -15 15 -25 0
-10 12 -25 28 -33 39 -20 122 -111 122 -135 0 -13 -11 -23 -34 -31 -33 -11
-36 -9 -75 32 -35 37 -41 48 -36 74 7 40 -11 82 -39 90 -12 3 -31 15 -43 27
-18 16 -29 18 -65 12 -72 -12 -96 -9 -133 19 -44 34 -77 29 -137 -20 -34 -29
-46 -34 -72 -28 -17 4 -36 14 -43 23 -11 14 -12 13 -13 -7 0 -15 8 -26 26 -32
37 -15 74 -12 80 5 4 8 11 15 17 15 5 0 2 -9 -9 -21 -17 -18 -26 -20 -80 -14
-48 5 -77 2 -129 -14 -51 -16 -71 -18 -87 -10 -31 16 -32 4 -2 -20 31 -24 46
-22 112 16 37 21 48 23 71 13 58 -24 107 -13 139 29 19 26 19 29 5 24 -16 -6
-16 -5 -4 10 7 9 17 15 21 12 4 -3 10 2 14 10 3 8 13 15 22 15 14 0 15 -2 3
-17 -13 -15 -11 -16 15 -11 19 4 42 -1 63 -12 30 -16 38 -16 79 -4 26 8 50 12
54 9 7 -4 20 -65 14 -65 -1 0 -19 7 -40 16 -46 19 -39 12 38 -40 133 -88 254
-247 309 -403 30 -84 37 -241 14 -318 -13 -48 -86 -204 -145 -314 -68 -124
-128 -216 -161 -244 -50 -43 -95 -51 -202 -36 -80 12 -84 12 -152 -15 -75 -31
-126 -31 -190 0 -18 8 -116 99 -217 202 -161 164 -188 196 -220 262 -93 193
-98 431 -12 608 71 146 228 281 378 326 35 11 46 10 64 -2 26 -17 104 -8 96
12 -8 20 28 53 66 61 19 4 61 20 92 36 60 30 92 36 103 19 13 -22 22 -8 22 37
0 35 4 50 18 57 24 14 49 41 89 96 l32 45 66 0 c62 0 67 2 104 38 21 20 44 37
51 37 7 0 10 6 7 14 -3 8 0 17 6 21 15 9 40 -13 34 -30 -4 -9 7 -17 33 -24 54
-15 55 -15 111 29 27 22 63 47 79 55 15 8 21 15 13 15 -9 0 -32 -11 -53 -25
l-37 -26 -43 40 -42 40 31 63 c74 148 187 262 329 330 153 73 258 75 458 8
157 -53 157 -53 132 -80 -30 -33 -81 -56 -248 -110 -172 -56 -251 -100 -311
-174 -21 -25 -52 -51 -70 -56 l-31 -10 33 5 c24 3 47 21 88 65 68 73 146 114
327 171 133 42 207 73 207 87 0 4 30 38 67 76 51 53 86 78 156 112 50 24 100
44 111 44 11 0 -21 -20 -71 -44z m-2665 27 l202 -6 0 -44 0 -43 -80 0 -80 0 0
-55 0 -55 70 0 70 0 0 -45 0 -45 -60 0 -60 0 0 -55 c0 -45 -3 -55 -17 -56 -17
-1 -17 -2 0 -6 9 -2 17 -11 17 -19 0 -11 16 -14 68 -14 l68 0 -4 -40 -4 -40
-58 0 c-31 0 -85 -3 -119 -6 l-61 -7 0 97 c0 57 -4 96 -10 96 -5 0 -10 16 -10
35 0 34 -1 35 -42 37 l-43 1 43 4 42 4 0 85 0 84 -50 0 -50 0 0 -180 c0 -173
1 -180 20 -180 11 0 20 -4 20 -10 0 -5 -9 -10 -20 -10 -11 0 -20 -7 -20 -15 0
-9 -7 -18 -16 -22 -13 -5 -13 -7 -2 -14 8 -5 -7 -9 -39 -9 l-53 0 0 219 0 220
-52 3 c-52 3 -53 4 -56 36 -6 59 -1 62 95 62 48 0 179 -3 291 -7z m507 -3 c38
-8 95 -57 95 -80 0 -6 -12 -10 -27 -10 -14 0 -24 -3 -20 -6 3 -3 24 -3 46 1
l41 7 0 49 0 50 53 -3 52 -3 3 -107 3 -108 49 0 50 0 0 110 0 110 45 0 45 0 0
-155 c0 -141 -2 -155 -17 -156 -17 -1 -17 -2 0 -6 15 -4 17 -18 17 -114 l0
-109 -45 0 -45 0 0 115 0 115 -50 0 -50 0 0 -115 0 -115 -50 0 -50 0 0 103 c0
185 -12 327 -27 327 -8 0 -13 -12 -13 -35 0 -33 -2 -35 -34 -35 -19 0 -41 -3
-50 -6 -12 -5 -16 0 -16 18 0 40 -27 68 -65 68 -50 0 -65 -28 -65 -121 0 -71
-2 -77 -22 -84 l-23 -8 23 -4 c20 -4 22 -10 22 -69 l0 -64 70 0 70 0 0 70 0
70 40 0 40 0 0 -70 c0 -63 -2 -70 -20 -70 -17 0 -20 -7 -20 -39 l0 -38 -73 -6
c-106 -9 -177 1 -177 24 0 14 7 19 25 19 14 0 25 5 25 10 0 6 -18 10 -40 10
-38 0 -40 2 -40 30 0 20 -5 30 -15 30 -10 0 -15 11 -15 35 0 19 5 35 10 35 6
0 10 42 10 105 0 67 5 117 14 138 33 77 118 111 221 87z m753 -16 c28 -19 52
-65 52 -99 0 -23 -4 -25 -40 -25 -34 0 -42 4 -50 26 -9 22 -15 25 -52 22 -43
-3 -43 -3 -43 -43 l0 -40 80 -40 80 -40 -55 -7 c-43 -5 -35 -6 35 -4 50 1 81
1 70 -1 -19 -3 -20 -10 -17 -93 3 -77 1 -90 -12 -90 -12 0 -16 -10 -16 -40 l0
-40 -120 0 -120 0 0 40 c0 36 -2 40 -25 40 -21 0 -25 5 -25 30 0 23 -4 30 -20
30 -11 0 -20 4 -20 9 0 11 50 21 106 21 l44 0 0 -46 0 -45 53 3 52 3 0 65 0
65 -42 3 c-35 3 -43 7 -43 23 0 16 -8 19 -52 20 -29 1 -43 4 -30 6 l22 4 -20
26 c-50 64 -46 160 11 207 27 23 40 26 103 26 49 0 79 -5 94 -16z m1295 -196
c58 -24 102 -59 122 -99 8 -14 15 -66 17 -115 3 -78 6 -93 29 -124 34 -45 52
-100 44 -136 -4 -16 -8 -39 -11 -51 -4 -19 -13 -13 -82 55 -84 85 -152 126
-277 167 -117 40 -210 38 -335 -5 -112 -38 -162 -62 -212 -102 -46 -36 -129
-49 -156 -25 -9 8 -28 17 -42 19 -53 7 -11 23 60 23 85 0 122 17 183 84 58 65
115 96 289 160 174 63 252 103 284 146 23 30 23 30 87 3z m-1570 -95 c-7 -2
-21 -2 -30 0 -10 3 -4 5 12 5 17 0 24 -2 18 -5z m432 -100 c-16 -24 -16 -47 0
-85 6 -15 2 -18 -22 -18 -22 0 -33 7 -41 25 -19 40 -15 52 30 97 35 35 43 40
46 25 2 -10 -4 -30 -13 -44z m904 -108 c74 -15 208 -76 271 -123 104 -77 168
-188 205 -359 55 -250 63 -298 57 -353 -6 -69 -16 -83 -98 -139 -50 -34 -77
-61 -103 -105 -26 -43 -48 -66 -80 -83 -43 -22 -106 -30 -126 -15 -6 4 -11 39
-12 77 -2 61 2 79 32 140 45 91 51 138 26 190 l-19 40 5 -43 c5 -36 -1 -56
-35 -126 -37 -74 -41 -89 -35 -133 3 -29 0 -66 -7 -87 -12 -37 -55 -96 -70
-96 -4 0 -10 23 -14 51 -9 65 -86 212 -151 288 -54 62 -121 118 -173 145 -82
42 -307 70 -406 51 -51 -10 -114 15 -131 51 -8 18 -21 34 -29 37 -8 3 -22 21
-32 39 -9 18 -27 42 -40 53 -12 11 -28 38 -33 60 -11 39 -10 41 25 71 35 30
171 102 229 122 161 55 365 34 499 -52 45 -29 228 -215 339 -346 45 -52 44
-48 -8 40 -47 78 -227 266 -308 320 -32 22 -90 49 -130 62 -86 26 -84 25 -69
40 7 7 12 31 12 53 l0 42 83 41 c127 64 198 74 326 47z m-820 -60 c30 -15 32
-18 18 -32 -14 -14 -18 -14 -44 5 -42 30 -66 59 -58 72 5 8 14 5 29 -8 11 -11
36 -27 55 -37z m-986 -53 c-5 -20 48 -166 90 -251 26 -51 50 -87 64 -94 23
-10 31 -41 15 -51 -17 -10 -52 25 -63 63 -6 22 -29 63 -51 92 -62 81 -102 198
-84 245 6 17 32 13 29 -4z m1387 -16 c0 -17 -10 -31 -34 -45 -42 -26 -70 -28
-37 -2 18 13 20 20 11 26 -9 6 -7 13 11 26 33 25 49 24 49 -5z m-1224 -52
c102 -97 212 -174 252 -174 12 0 22 -2 22 -4 0 -2 3 -11 6 -20 11 -29 -45 -19
-83 14 -18 17 -62 44 -96 61 -85 43 -119 70 -156 125 -57 87 -37 87 55 -2z
m967 49 c18 -9 52 -19 77 -22 31 -4 45 -11 45 -21 0 -25 -33 -23 -87 4 -29 14
-60 26 -69 26 -32 0 -32 21 -1 29 2 1 17 -7 35 -16z m-35 -49 l57 -17 -35 -12
c-69 -24 -100 -28 -100 -12 0 8 -7 20 -15 27 -8 7 -12 16 -9 21 8 13 39 11
102 -7z m-140 -27 c22 -17 14 -37 -16 -37 -26 0 -48 15 -66 47 -8 14 62 6 82
-10z m41 -20 c-1 -20 -2 -20 -6 -2 -3 11 -13 25 -22 33 -14 11 -13 12 7 2 14
-7 22 -19 21 -33z m-74 -36 l30 -7 -31 -16 c-16 -9 -53 -37 -81 -62 -28 -25
-53 -43 -57 -39 -3 3 -6 19 -6 34 0 21 7 32 30 44 16 8 34 24 40 35 11 21 24
22 75 11z m-315 -79 c0 -25 -21 -49 -50 -57 -21 -6 -20 -3 8 14 19 12 32 29
32 41 0 11 2 20 5 20 3 0 5 -8 5 -18z m170 -78 c0 -18 48 -94 59 -94 5 0 26
-30 47 -67 23 -39 52 -74 72 -86 33 -20 43 -47 17 -47 -19 0 -49 30 -69 68 -8
16 -26 37 -40 46 -15 9 -26 24 -26 33 0 9 -3 14 -6 10 -20 -20 -104 138 -88
165 8 12 34 -10 34 -28z m-74 -170 c8 -32 2 -37 -29 -23 -23 10 -37 35 -37 67
0 23 59 -16 66 -44z m23 -48 c-9 -8 -10 -7 -5 7 3 10 7 24 7 30 1 7 3 4 6 -7
3 -10 -1 -23 -8 -30z m399 -78 c-11 -17 -30 -25 -67 -30 -28 -5 -78 -22 -111
-39 -48 -25 -62 -28 -79 -19 -12 6 -21 15 -21 20 0 16 43 33 90 35 70 3 130
23 124 40 -5 12 3 15 36 15 42 0 42 0 28 -22z m239 12 c106 -24 203 -96 298
-223 92 -124 134 -257 120 -376 -12 -93 -110 -422 -144 -483 -37 -65 -56 -75
-166 -84 -54 -4 -79 -11 -114 -35 -56 -36 -114 -53 -159 -44 -32 6 -382 227
-382 242 0 3 27 60 61 126 91 179 110 236 116 349 7 120 -12 209 -68 321 -31
62 -36 77 -22 77 9 0 35 16 59 35 38 31 48 35 79 29 41 -7 81 14 95 52 9 23
14 24 94 24 47 0 107 -5 133 -10z"/>
<path d="M2628 4993 c6 -2 18 -2 25 0 6 3 1 5 -13 5 -14 0 -19 -2 -12 -5z"/>
<path d="M3100 5000 c0 -5 11 -10 25 -10 14 0 25 5 25 10 0 6 -11 10 -25 10
-14 0 -25 -4 -25 -10z"/>
<path d="M3172 4995 c-9 -11 -10 -20 -3 -33 9 -15 10 -15 11 6 0 15 6 22 20
22 11 0 20 5 20 10 0 15 -33 11 -48 -5z"/>
<path d="M3927 5075 c-7 -23 -37 -154 -37 -161 0 -2 18 -4 40 -4 48 0 49 7 21
115 -13 47 -20 63 -24 50z"/>
<path d="M4211 4952 c-7 -13 -10 -26 -7 -29 3 -3 33 -6 68 -8 35 -1 42 0 16 2
-40 3 -48 8 -56 31 l-9 27 -12 -23z"/>
<path d="M4133 4913 c9 -2 25 -2 35 0 9 3 1 5 -18 5 -19 0 -27 -2 -17 -5z"/>
<path d="M4050 4792 c0 -15 60 -26 73 -13 8 8 6 11 -8 11 -11 0 -30 3 -42 6
-13 4 -23 2 -23 -4z"/>
<path d="M4488 4973 c6 -2 18 -2 25 0 6 3 1 5 -13 5 -14 0 -19 -2 -12 -5z"/>
<path d="M4988 4763 c7 -3 16 -2 19 1 4 3 -2 6 -13 5 -11 0 -14 -3 -6 -6z"/>
<path d="M5257 5075 c-7 -23 -37 -154 -37 -161 0 -2 18 -4 40 -4 48 0 49 7 21
115 -13 47 -20 63 -24 50z"/>
<path d="M3480 3391 c0 -6 4 -13 10 -16 6 -3 7 1 4 9 -7 18 -14 21 -14 7z"/>
<path d="M2268 4073 c6 -2 18 -2 25 0 6 3 1 5 -13 5 -14 0 -19 -2 -12 -5z"/>
<path d="M3320 3960 c0 -5 7 -10 15 -10 8 0 15 5 15 10 0 6 -7 10 -15 10 -8 0
-15 -4 -15 -10z"/>
<path d="M1508 1754 c-56 -30 -62 -84 -19 -159 56 -99 162 -173 276 -194 34
-6 182 -11 347 -11 l288 0 0 -324 c0 -363 0 -361 72 -373 32 -5 41 -1 68 25
l30 30 0 321 0 321 235 0 234 0 3 -326 3 -326 28 -24 c39 -33 81 -31 118 5
l29 29 0 321 0 321 235 0 235 0 0 -321 0 -321 29 -29 c43 -42 105 -37 131 12
7 13 11 129 10 339 l0 320 240 0 240 0 0 -321 c0 -186 4 -328 10 -338 13 -25
64 -45 95 -37 13 3 34 16 45 28 19 21 20 34 20 345 l0 323 235 0 235 0 0 -305
c0 -241 3 -313 14 -340 26 -62 89 -74 137 -26 l29 29 0 321 0 320 241 3 241 3
24 28 c33 38 32 86 -2 121 l-27 26 -1911 0 c-1249 0 -1924 4 -1947 10 -51 14
-101 50 -124 89 -30 51 -81 101 -101 101 -11 -1 -31 -7 -46 -16z"/>
</g>
</svg>
